<?xml version="1.0" standalone="no"?>
<!DOCTYPE svg PUBLIC "-//W3C//DTD SVG 20010904//EN"
 "http://www.w3.org/TR/2001/REC-SVG-20010904/DTD/svg10.dtd">
<svg version="1.0" xmlns="http://www.w3.org/2000/svg"
 width="70.000000pt" height="70.000000pt" viewBox="0 0 70.000000 70.000000"
 preserveAspectRatio="xMidYMid meet">
<metadata>
Created by potrace 1.14, written by Peter Selinger 2001-2017
</metadata>
<g transform="translate(0.000000,70.000000) scale(0.100000,-0.100000)"
fill="#000000" stroke="none">
<path d="M285 681 c-47 -29 -82 -71 -112 -136 -23 -49 -28 -74 -28 -132 1 -57
-3 -74 -15 -78 -16 -6 -80 -107 -103 -165 -8 -19 -18 -52 -21 -73 -6 -33 -3
-41 24 -68 21 -22 36 -29 48 -24 9 4 22 6 27 5 6 -1 128 -4 273 -7 l263 -4 30
31 c26 25 30 35 24 63 -13 66 -27 98 -61 138 -19 22 -34 49 -34 60 0 10 -8 26
-19 36 -13 13 -20 38 -24 91 -16 194 -160 333 -272 263z m138 -162 c21 -6 47
-19 58 -30 20 -20 20 -23 -2 -111 l-10 -38 -119 0 -119 0 -10 38 c-18 64 -14
110 11 123 55 29 127 36 191 18z m-24 -206 l173 -4 -7 -96 c-4 -53 -10 -117
-14 -142 l-6 -46 -195 0 -195 0 -6 46 c-4 25 -10 89 -14 142 -7 94 -7 97 13
97 12 0 24 5 28 11 4 6 15 8 28 3 11 -4 99 -10 195 -11z"/>
<path d="M322 488 c-13 -13 -16 -38 -6 -38 4 0 13 8 20 18 10 13 15 14 25 5
10 -10 9 -16 -4 -31 -18 -20 -23 -42 -9 -42 15 0 42 36 42 56 0 24 -18 44 -40
44 -9 0 -21 -5 -28 -12z"/>
<path d="M340 370 c0 -5 5 -10 10 -10 6 0 10 5 10 10 0 6 -4 10 -10 10 -5 0
-10 -4 -10 -10z"/>
<path d="M270 242 c0 -5 3 -12 7 -16 11 -10 11 -100 0 -114 -14 -17 -1 -27 17
-13 11 10 19 9 35 -1 17 -10 25 -10 42 0 16 10 24 11 35 1 18 -14 31 -4 17 13
-11 15 -11 98 1 116 10 17 1 26 -15 16 -17 -10 -109 -11 -116 -2 -6 11 -23 10
-23 0z m111 -48 c11 -13 11 -20 -2 -42 -8 -15 -21 -27 -29 -27 -8 0 -21 12
-29 27 -13 22 -13 29 -2 42 7 9 21 16 31 16 10 0 24 -7 31 -16z"/>
</g>
</svg>
